<svg xmlns="http://www.w3.org/2000/svg" xmlns:xlink="http://www.w3.org/1999/xlink" width="1575.147" height="1586.373" viewBox="0 0 1575.147 1586.373"><defs><style>.a{fill:url(#a);}</style><linearGradient id="a" x1="0.5" x2="0.5" y2="1" gradientUnits="objectBoundingBox"><stop offset="0" stop-color="#162431"/><stop offset="1" stop-color="#071019"/></linearGradient></defs><path class="a" d="M903.694,854.432A623.239,623.239,0,0,0,766.375,859.4c65.09-29.638,130.558-70.956,191.864-124.177,110.5-96,186.05-210.682,218.7-318-110.828,17.339-234.919,76.047-345.472,172.065C768.422,644.06,717.249,704.9,678.442,766.963c29.672-87.022,46.547-187.065,46.547-293.593,0-169.984-43.038-323.541-112.222-433.87-69.2,110.33-112.239,263.886-112.239,433.87,0,106.528,16.909,206.571,46.547,293.593-38.806-62.063-90-122.9-153.023-177.673C283.516,493.272,159.39,434.564,48.579,417.225c32.683,107.319,108.179,222,218.715,318,61.323,53.221,126.791,94.539,191.864,124.177a623.206,623.206,0,0,0-137.3-4.971c-111.86,8.24-210.786,44-280.038,94.883,75.944,40.148,179.049,61.082,290.944,52.86,57.47-4.266,111.448-15.911,159.835-32.992-8.412,6.846-16.892,13.641-24.925,21.519-45.343,44.449-75.067,96-86.385,143.339,47.493-10.407,99.7-39.03,145.059-83.427a339.059,339.059,0,0,0,65.314-89.189l14.724,250.607h12.763l14.724-250.607a338.215,338.215,0,0,0,65.3,89.189c45.36,44.4,97.6,73.02,145.059,83.427-11.319-47.338-41.042-98.89-86.4-143.339-8-7.878-16.479-14.673-24.89-21.519,48.4,17.081,102.365,28.727,159.835,32.992,111.895,8.222,214.983-12.712,290.909-52.86C1114.428,898.433,1015.52,862.672,903.694,854.432Z" transform="translate(-55.966 557.632) rotate(-30)"/></svg>