<svg xmlns="http://www.w3.org/2000/svg" width="894.572" height="768.897" viewBox="0 0 894.572 768.897">
  <g id="Group_80" data-name="Group 80" transform="translate(-1132.178 -384.854)">
    <path id="Intersection_1" data-name="Intersection 1" d="M1702.648-5651.188a360.782,360.782,0,0,0-67.4,42.24,463.108,463.108,0,0,0,60.245-117.792c27.611-80.115,32.292-159.478,17.6-222.732-50.543,40.772-95.761,106.124-123.393,186.263-15.753,45.707-23.8,91.021-25.289,133.369-10.312-52.217-30.809-107.258-61.643-160.666-49.2-85.222-115.223-149.749-181.841-185.037-2.758,75.344,20.111,164.787,69.312,250.008,30.834,53.408,68.268,98.67,108.314,133.72-37.418-19.883-80.692-35.568-128.142-44.783-83.207-16.144-162.427-9.648-223,13.733,47.448,44.344,118.49,79.987,201.693,96.122a463.47,463.47,0,0,0,132.13,6.72,360.772,360.772,0,0,0-70.272,37.25c-53.694,36.509-92.937,83.072-112.929,128.628,49.694-1.854,107.443-21.2,161.159-57.714a358.533,358.533,0,0,0,70.581-62.806c-2.235,5.867-4.52,11.729-6.267,18-9.866,35.409-9.846,69.858-1.819,96.867,20.8-18.964,38.685-48.426,48.575-83.813a196.293,196.293,0,0,0,6.929-63.62l79.918,121.379,6.4-3.695-65.155-129.9a195.773,195.773,0,0,0,58.55,25.814c35.591,9.129,70.065,8.358,96.87-.162-19.376-20.457-49.2-37.7-84.8-46.853-6.29-1.635-12.508-2.587-18.707-3.584a358.6,358.6,0,0,0,89.68-29.725c58.476-28.266,104.1-68.6,130.542-110.706C1821.031-5690.126,1761.095-5679.426,1702.648-5651.188Z" transform="translate(84.523 6462.146)" fill="none" stroke="rgba(60,193,148,0.5)" stroke-linejoin="round" stroke-width="1.5" opacity="0.602"/>
    <path id="Intersection_3" data-name="Intersection 3" d="M1591.535-5718.957a287.984,287.984,0,0,0-53.793,33.675,369.06,369.06,0,0,0,48.081-93.907c22.036-63.87,25.772-127.141,14.043-177.569-40.337,32.5-76.425,84.605-98.478,148.495a367.074,367.074,0,0,0-20.183,106.326c-8.23-41.629-24.588-85.509-49.2-128.088-39.266-67.941-91.958-119.384-145.125-147.517-2.2,60.066,16.05,131.373,55.317,199.314,24.608,42.579,54.484,78.663,86.444,106.605a368.251,368.251,0,0,0-102.268-35.7c-66.406-12.87-129.631-7.692-177.972,10.949,37.867,35.353,94.565,63.768,160.968,76.631a370.264,370.264,0,0,0,105.45,5.357,288.04,288.04,0,0,0-56.083,29.7c-42.853,29.106-74.172,66.228-90.127,102.545,39.66-1.478,85.748-16.9,128.619-46.011a286.031,286.031,0,0,0,56.329-50.071c-1.784,4.678-3.608,9.35-5,14.353-7.874,28.229-7.858,55.693-1.452,77.226,16.6-15.119,30.874-38.606,38.767-66.819a156.33,156.33,0,0,0,5.53-50.72l63.781,96.768,5.107-2.946-52-103.563a156.33,156.33,0,0,0,46.728,20.581c28.4,7.277,55.918,6.663,77.31-.129-15.464-16.309-39.265-30.055-67.681-37.353-5.02-1.3-9.983-2.062-14.93-2.857a286.391,286.391,0,0,0,71.572-23.7c46.669-22.535,83.079-54.69,104.184-88.258C1686.015-5750,1638.181-5741.469,1591.535-5718.957Z" transform="translate(168.523 6551.146)" fill="none" stroke="rgba(60,193,148,0.5)" stroke-linejoin="round" stroke-width="1.5"/>
    <path id="Intersection_4" data-name="Intersection 4" d="M1471.208-5787.946a209.154,209.154,0,0,0-39.065,24.43,267.645,267.645,0,0,0,34.916-68.127c16-46.336,18.715-92.237,10.2-128.821-29.293,23.581-55.5,61.379-71.515,107.729a266.066,266.066,0,0,0-14.657,77.137c-5.977-30.2-17.856-62.035-35.727-92.924-28.515-49.289-66.78-86.61-105.39-107.02-1.6,43.577,11.656,95.308,40.171,144.6,17.87,30.89,39.566,57.068,62.776,77.339a267.6,267.6,0,0,0-74.267-25.9c-48.224-9.337-94.138-5.581-129.244,7.943,27.5,25.647,68.674,46.262,116.9,55.593a269.133,269.133,0,0,0,76.579,3.887,209.278,209.278,0,0,0-40.728,21.544c-31.12,21.116-53.864,48.046-65.45,74.394,28.8-1.072,62.271-12.263,93.4-33.379a207.653,207.653,0,0,0,40.907-36.325c-1.3,3.394-2.62,6.783-3.632,10.412-5.718,20.479-5.707,40.4-1.054,56.025,12.054-10.968,22.421-28.008,28.153-48.476a113.3,113.3,0,0,0,4.016-36.8l46.318,70.2,3.708-2.137-37.762-75.132a113.588,113.588,0,0,0,33.934,14.931c20.627,5.279,40.608,4.833,56.143-.094-11.23-11.832-28.514-21.8-49.151-27.1-3.646-.945-7.25-1.5-10.842-2.073a208.123,208.123,0,0,0,51.976-17.192c33.891-16.348,60.332-39.676,75.659-64.029C1539.82-5810.466,1505.082-5804.278,1471.208-5787.946Z" transform="translate(259.523 6643.146)" fill="none" stroke="rgba(60,193,148,0.5)" stroke-linejoin="round" stroke-width="1.5" opacity="0.296"/>
    <path id="Intersection_2" data-name="Intersection 2" d="M1833.19-5574.979a445.593,445.593,0,0,0-83.25,52.164c29.708-41.618,55.475-90.6,74.409-145.468,34.1-98.938,39.884-196.947,21.734-275.064-62.426,50.353-118.275,131.059-152.4,230.027-19.456,56.445-29.393,112.407-31.235,164.7-12.737-64.486-38.053-132.458-76.136-198.415-60.768-105.245-142.313-184.933-224.594-228.512-3.407,93.046,24.84,203.5,85.608,308.748,38.083,65.957,84.318,121.853,133.78,165.138-46.216-24.554-99.664-43.925-158.269-55.305-102.77-19.937-200.615-11.916-275.428,16.96,58.6,54.763,146.349,98.78,249.112,118.706,57,11.031,112.306,13.21,163.194,8.3a445.609,445.609,0,0,0-86.794,46c-66.318,45.087-114.788,102.59-139.479,158.85,61.377-2.291,132.7-26.185,199.049-71.274a442.816,442.816,0,0,0,87.175-77.562c-2.761,7.246-5.583,14.484-7.741,22.233-12.186,43.729-12.161,86.272-2.247,119.626,25.687-23.42,47.781-59.8,60-103.506a242.382,242.382,0,0,0,8.558-78.568l98.708,149.9,7.9-4.563-80.473-160.424a241.823,241.823,0,0,0,72.316,31.879c43.958,11.274,86.538,10.322,119.645-.2-23.931-25.263-60.766-46.556-104.743-57.861-7.769-2.019-15.449-3.194-23.1-4.426a442.956,442.956,0,0,0,110.764-36.708c72.224-34.907,128.573-84.719,161.234-136.717C1979.406-5623.066,1905.378-5609.852,1833.19-5574.979Z" transform="translate(-14.477 6361.146)" fill="none" stroke="rgba(60,193,148,0.5)" stroke-linejoin="round" stroke-width="1.5"/>
  </g>
</svg>
