<?xml version="1.0" encoding="UTF-8"?>
<!-- Generator: Adobe Illustrator 24.1.3, SVG Export Plug-In . SVG Version: 6.00 Build 0)  -->
<svg version="1.1" width="40px" id="Multibanco" xmlns="http://www.w3.org/2000/svg" xmlns:xlink="http://www.w3.org/1999/xlink" x="0px" y="0px" viewBox="0 0 85.5 101" style="enable-background:new 0 0 85.5 101;" xml:space="preserve">
<style type="text/css">
	.st0{fill:#37BE72;}
</style>
<g>
	<g>
		<g>
			<g id="Laag_1">
				<g>
					<g>
						<path class="st0" d="M76,61.5l-0.2,0.2c-1.2,1.3-2.7,2.2-4.4,2.9l-0.1,0c-1.5,0.6-3.1,0.9-4.8,0.9c-2.4,0-4.7-0.5-6.9-1.5        l-0.1,0l-0.3-0.2l-0.1-0.1c-2-1.1-3.6-2.7-4.7-4.7l-0.2-0.4l-4.4,4.7c0,0-0.9,4.5-1.3,6.7l0,0.1l0.1,0.1l0,0l0.1,0.1        c4.5,4.9,10.8,7.7,17.4,7.7l0.4,0l0.3,0c4.3,0,8.6-1.1,12.4-3.2l0.1-0.1c2.1-1.2,4-2.7,5.7-4.4l0.2-0.2L76,61.5z"/>
						<path class="st0" d="M13.9,39.6L13.9,39.6l1.8,6.8l0.4-0.6c1.9-2.8,4.9-4.7,8.2-5.4l0.1,0c1.2-0.2,2.4-0.3,3.6-0.3        c1.8,0.1,3.6,0.6,5.1,1.5l0.1,0.1c2.2,1.2,4.1,2.9,5.7,4.8l0.3,0.3l4.2-5.9l0,0l1.3-6.3l-0.1-0.1l-0.5-0.4        c-2.8-2.5-6-4.5-9.6-5.6c-1.9-0.6-3.9-0.9-5.9-0.9l-0.1,0c-4.5,0-8.9,1.2-12.9,3.3L15.5,31l-1.8,7.9L13.9,39.6z"/>
						<path class="st0" d="M53.4,56.7l0-0.1c0-0.5-0.1-2.4-0.1-3.6l0-0.3c-0.1-3,0.9-5.9,2.8-8.2l0.1-0.1c0.3-0.3,0.6-0.7,0.9-1        c2.4-2.5,5.7-3.9,9.2-3.9c0.6,0,1.1,0,1.7,0.1l0.1,0c2.9,0.4,5.5,1.7,7.6,3.7l0.2,0.2l8.9-9l-0.2-0.2        c-4.5-4.4-10.4-7-16.7-7.4l-0.1,0c-0.6,0-1.1-0.1-1.7-0.1c-3.8,0-7.5,0.7-11,2.1c-2.3,1-4.4,2.3-6.2,4l-0.1,0.1l-0.1,0l0,0.1        l-0.1,0.1l0,0l0,0l-0.1,0.1c-0.6,0.6-1.2,1.3-1.8,2l0,0.1l-1.4,6.3l-4.7,6.6l0,4.6c0,5.1-3,9.7-7.5,11.8l-0.1,0        c-1.7,0.8-3.5,1.1-5.3,1.1c-7.2,0.1-13.1-5.7-13.4-12.9l-0.1-4.3l0-0.3l-2.3-9.2l2-8.5l-0.2-13.4L0.7,12.8l0.5,29.5l0,0.1        L1.3,53c0,0.4,0,0.7,0,1.1c0,0.1,0,0.1,0,0.2c0.5,7.2,4,13.9,9.7,18.4l0.1,0.1c4.7,3.7,10.5,5.7,16.5,5.7l0.9,0l0.2,0        c6.6-0.2,12-2.4,16.2-6.3l0.1-0.1c0.6-0.6,1.2-1.2,1.7-1.8l0-0.1l1.4-7.4l5.1-5.8L53.4,56.7z"/>
					</g>
				</g>
			</g>
		</g>
	</g>
</g>
</svg>