<svg xmlns="http://www.w3.org/2000/svg" xmlns:xlink="http://www.w3.org/1999/xlink" width="32" height="32" viewBox="0 0 32 32">
  <defs>
    <linearGradient id="linear-gradient" x1="0.5" x2="0.5" y2="1" gradientUnits="objectBoundingBox">
      <stop offset="0" stop-color="#3cc194"/>
      <stop offset="1" stop-color="#00b786"/>
    </linearGradient>
  </defs>
  <g id="BCNA" transform="translate(-561 -660)">
    <circle id="Ellipse_34" data-name="Ellipse 34" cx="16" cy="16" r="16" transform="translate(561 660)" fill="url(#linear-gradient)"/>
    <g id="Group_1553" data-name="Group 1553" transform="translate(567.564 668.69)">
      <g id="Group_4" data-name="Group 4" transform="translate(0 0)">
        <g id="Group_3" data-name="Group 3">
          <g id="Laag_1" data-name="Laag 1">
            <g id="Group_2" data-name="Group 2">
              <g id="Group_1" data-name="Group 1">
                <path id="Path_1" data-name="Path 1" d="M149.1,147.767l-.046.047a2.875,2.875,0,0,1-.979.648h-.019a2.94,2.94,0,0,1-1.06.2,3.431,3.431,0,0,1-1.535-.333h-.029l-.071-.037-.02-.011a2.584,2.584,0,0,1-1.049-1.047l-.046-.079-.98,1.053s-.2,1.007-.283,1.5l0,.033.024.024h0l.014.015a5.269,5.269,0,0,0,3.891,1.715l.079,0,.064,0a5.731,5.731,0,0,0,2.769-.718l.025-.013a5.706,5.706,0,0,0,1.269-.974l.046-.047Z" transform="translate(-132.289 -136.922)" fill="#fff"/>
                <path id="Path_2" data-name="Path 2" d="M105.53,116.351v.019l.4,1.5.081-.129a2.9,2.9,0,0,1,1.833-1.2l.033,0a3.175,3.175,0,0,1,.8-.062,2.764,2.764,0,0,1,1.145.334l.028.016a4.408,4.408,0,0,1,1.268,1.07l.056.073.938-1.32h0l.3-1.4-.032-.024-.108-.092a5.8,5.8,0,0,0-2.136-1.251,4.847,4.847,0,0,0-1.318-.207H108.8a6.084,6.084,0,0,0-2.88.737l-.028.015-.4,1.773Z" transform="translate(-102.569 -110.378)" fill="#fff"/>
                <path id="Path_3" data-name="Path 3" d="M103.14,107.558v-.027c.006-.11-.018-.54-.024-.792l0-.066a2.856,2.856,0,0,1,.617-1.836l.013-.018c.06-.076.124-.147.191-.219a2.876,2.876,0,0,1,2.056-.874,3.163,3.163,0,0,1,.371.019h.021a2.97,2.97,0,0,1,1.689.822l.047.048,1.987-2-.047-.048a5.851,5.851,0,0,0-3.721-1.64h-.021l-.377-.019a6.276,6.276,0,0,0-2.445.472,4.751,4.751,0,0,0-1.39.9l-.022.02h-.025v.012l-.015.014h0l-.022.02a4.481,4.481,0,0,0-.394.443v.012l-.319,1.4-1.059,1.461v1.021a2.947,2.947,0,0,1-1.679,2.638l-.019.009a2.88,2.88,0,0,1-1.183.256,2.955,2.955,0,0,1-2.978-2.87l-.014-.951,0-.062-.52-2.041.442-1.895-.047-2.978-2.877-1.016.111,6.585v.029l.038,2.344a2.318,2.318,0,0,0,.011.239.3.3,0,0,0,0,.043,5.723,5.723,0,0,0,2.168,4.093l.02.016a5.873,5.873,0,0,0,3.681,1.271l.208,0,.044,0a5.371,5.371,0,0,0,3.615-1.41l.017-.016c.135-.13.264-.267.388-.412l.011-.014.309-1.644,1.136-1.3Z" transform="translate(-91.385 -97.772)" fill="#fff"/>
              </g>
            </g>
          </g>
        </g>
      </g>
    </g>
  </g>
</svg>
