<svg id="Laag_1" data-name="Laag 1" xmlns="http://www.w3.org/2000/svg" xmlns:xlink="http://www.w3.org/1999/xlink" viewBox="0 0 80 45"><defs><style>.cls-1{fill:none;}.cls-2{fill:url(#Naamloos_verloop_4);}.cls-3{fill:#fff;}.cls-4{fill:url(#Naamloos_verloop_2);}.cls-5{clip-path:url(#clip-path);}.cls-6{opacity:0.87;}</style><linearGradient id="Naamloos_verloop_4" x1="-910.11" y1="558.17" x2="-910.11" y2="557.17" gradientTransform="matrix(45, 0, 0, -45, 40977.6, 25117.86)" gradientUnits="userSpaceOnUse"><stop offset="0" stop-color="#3cc194"/><stop offset="1" stop-color="#00b786"/></linearGradient><linearGradient id="Naamloos_verloop_2" x1="-909.65" y1="557.95" x2="-910.59" y2="557.38" gradientTransform="matrix(45, 0, 0, -45, 41012.6, 25117.86)" gradientUnits="userSpaceOnUse"><stop offset="0" stop-color="#e815c5"/><stop offset="0.35" stop-color="#a212b5"/><stop offset="1" stop-color="#060c92"/></linearGradient><clipPath id="clip-path"><rect class="cls-1" x="45" y="10" width="25" height="25"/></clipPath></defs><g id="BCNA-Osmo"><g id="Group_1606" data-name="Group 1606"><circle id="Ellipse_34-2" data-name="Ellipse 34-2" class="cls-2" cx="22.5" cy="22.5" r="22.5"/><g id="Group_1553" data-name="Group 1553"><g id="Group_4" data-name="Group 4"><g id="Group_3" data-name="Group 3"><g id="Laag_1-2" data-name="Laag 1"><g id="Group_2" data-name="Group 2"><g id="Group_1" data-name="Group 1"><path id="Path_1" data-name="Path 1" class="cls-3" d="M32.81,27.42l-.07.06a3.91,3.91,0,0,1-1.37.91h0a4.24,4.24,0,0,1-1.49.29,4.85,4.85,0,0,1-2.15-.47h-.05l-.1-.05,0,0a3.55,3.55,0,0,1-1.48-1.47L26,26.56,24.61,28s-.27,1.41-.4,2.11v0l0,0h0l0,0a7.4,7.4,0,0,0,5.46,2.4h.2a8,8,0,0,0,3.88-1l0,0a7.79,7.79,0,0,0,1.78-1.36l.07-.07Z"/><path id="Path_2" data-name="Path 2" class="cls-3" d="M13.37,20.58v0l.56,2.1.12-.18a4,4,0,0,1,2.57-1.69h.05a4.13,4.13,0,0,1,1.11-.09,3.8,3.8,0,0,1,1.61.47l0,0a6.11,6.11,0,0,1,1.78,1.5l.08.1L22.6,21h0L23,19,23,19l-.15-.13a8.18,8.18,0,0,0-3-1.75A6.44,6.44,0,0,0,18,16.82h0a8.51,8.51,0,0,0-4,1l0,0-.56,2.49Z"/><path id="Path_3" data-name="Path 3" class="cls-3" d="M25.71,25.93v0c0-.15,0-.76,0-1.11v-.09a4,4,0,0,1,.86-2.58l0,0,.27-.31a4.08,4.08,0,0,1,2.89-1.23,4.53,4.53,0,0,1,.52,0h0a4.21,4.21,0,0,1,2.37,1.15l.06.07L35.49,19l-.06-.07a8.28,8.28,0,0,0-5.23-2.3h0l-.53,0a8.82,8.82,0,0,0-3.44.67,6.86,6.86,0,0,0-1.95,1.26l0,0h0v0l0,0h0l0,0a5.5,5.5,0,0,0-.56.62v0l-.45,2-1.48,2.05V24.7a4.12,4.12,0,0,1-2.36,3.7l0,0a4.18,4.18,0,0,1-5.85-3.67l0-1.34v-.09l-.72-2.86.62-2.66-.06-4.18-4-1.42.16,9.24v0l.05,3.29c0,.11,0,.23,0,.34a.06.06,0,0,0,0,.06,8,8,0,0,0,3,5.74l0,0a8.21,8.21,0,0,0,5.16,1.79H18a7.53,7.53,0,0,0,5.08-2l0,0a7.64,7.64,0,0,0,.55-.58v0l.43-2.31L25.71,26Z"/></g></g></g></g></g></g></g><g id="Osmosis"><g id="Group_1561" data-name="Group 1561"><g id="Group_1556" data-name="Group 1556"><circle id="Ellipse_34-3" data-name="Ellipse 34-3" class="cls-4" cx="57.5" cy="22.5" r="22.5"/></g></g><g id="Group_1568" data-name="Group 1568"><g class="cls-5"><g id="Group_1567" data-name="Group 1567"><g id="Group_1566" data-name="Group 1566"><g class="cls-5"><g id="Group_1565" data-name="Group 1565"><g id="Group_1564" data-name="Group 1564" class="cls-6"><g id="Group_1563" data-name="Group 1563"><g class="cls-5"><g id="Group_1562" data-name="Group 1562"><path id="Path_2719" data-name="Path 2719" class="cls-3" d="M69.87,16a1,1,0,0,0,0-1.47l-4.41-4.41a1,1,0,0,0-1.47,0l-2.13,2.13a1,1,0,0,1-1.08.24,11.69,11.69,0,1,0,6.71,6.72,1,1,0,0,1,.25-1.09Zm-3.3-.37-2,2a.89.89,0,0,0-.15,1.08,9.7,9.7,0,0,1,1.15,3.64,2.38,2.38,0,0,1-1.7,2.54,10,10,0,0,1-2.61.32c-3.73,0-5.43-3-8.73-3a8.91,8.91,0,0,0-3.67.73.89.89,0,0,1-1.16-.44.86.86,0,0,1-.06-.5,8.75,8.75,0,0,1,1-3A9.1,9.1,0,0,1,61,15.47l.26.14a.91.91,0,0,0,1.09-.15l2-2a.52.52,0,0,1,.73,0h0l1.47,1.47a.52.52,0,0,1,0,.73h0"/></g></g></g></g></g></g></g></g></g></g></g></g></svg>